<svg width="274px" height="472px" viewBox="658 430 274 472" version="1.1" xmlns="http://www.w3.org/2000/svg" xmlns:xlink="http://www.w3.org/1999/xlink">
    <!-- Generator: Sketch 3.7.1 (28215) - http://www.bohemiancoding.com/sketch -->
    <desc>Created with Sketch.</desc>
    <defs></defs>
    <g id="Group" stroke="none" stroke-width="1" fill="none" fill-rule="evenodd" transform="translate(658.000000, 430.000000)">
        <path d="M118.626809,294.329286 C115.000652,285.461865 111.270917,275.439339 107.894282,264.684805 C100.95944,242.597429 95.5139688,217.422456 95.5139688,192.8251 C95.5139688,125.109826 189.617257,21.9845885 189.617258,13.9624499 C189.617259,5.94031128 143.835606,13.9624499 136.783721,24.4267038 C129.731835,34.8909578 72.4841446,127.727723 72.4841446,192.8251 C72.4841446,231.42338 86.7284624,273.401417 98.3252904,301.181374 C25.1717321,293.329526 13.3022541,334.762159 29.7163768,392.005007 C46.8626088,451.801024 114.216591,470.571362 161.990803,456.872328 C234.995896,446.927971 263.339137,389.727378 246.192905,329.931361 C229.980117,273.39065 177.073977,250.708782 118.626809,294.329286 Z" id="Rectangle-1" fill="#D0011B" transform="translate(137.134657, 235.914086) rotate(-6.000000) translate(-137.134657, -235.914086) "></path>
        <path d="M216.888931,359.815698 C233.910154,333.993525 234.574613,328.569345 223.858056,311.772188 C204.337905,289.554894 171.622953,289.29077 166.472885,300.531479 C194.117747,309.576129 208.570835,326.586824 216.888931,359.815698 Z" id="Oval-3" fill="#FFFFFF" transform="translate(198.723324, 326.521490) rotate(-6.000000) translate(-198.723324, -326.521490) "></path>
    </g>
</svg>
